<svg xmlns="http://www.w3.org/2000/svg" viewBox="0 0 64 64">
  <defs>
    <linearGradient id="bg" x1="10" y1="8" x2="54" y2="56" gradientUnits="userSpaceOnUse">
      <stop offset="0" stop-color="#111827"/>
      <stop offset="1" stop-color="#020617"/>
    </linearGradient>
    <linearGradient id="accent" x1="16" y1="14" x2="49" y2="51" gradientUnits="userSpaceOnUse">
      <stop offset="0" stop-color="#818cf8"/>
      <stop offset="0.55" stop-color="#38bdf8"/>
      <stop offset="1" stop-color="#34d399"/>
    </linearGradient>
  </defs>
  <rect width="64" height="64" rx="16" fill="url(#bg)"/>
  <circle cx="32" cy="32" r="21" fill="#0f172a" stroke="url(#accent)" stroke-width="2.8"/>
  <path d="M32 18v7M32 39v7M18 32h7M39 32h7M22.5 22.5l5 5M36.5 36.5l5 5M41.5 22.5l-5 5M27.5 36.5l-5 5" stroke="#38bdf8" stroke-width="2.2" stroke-linecap="round" opacity="0.72"/>
  <circle cx="32" cy="32" r="8.8" fill="url(#accent)"/>
  <circle cx="32" cy="32" r="4.2" fill="#f8fafc" opacity="0.96"/>
  <circle cx="32" cy="14.5" r="3.2" fill="#818cf8"/>
  <circle cx="49.5" cy="32" r="3.2" fill="#38bdf8"/>
  <circle cx="32" cy="49.5" r="3.2" fill="#34d399"/>
  <circle cx="14.5" cy="32" r="3.2" fill="#38bdf8"/>
  <circle cx="44.5" cy="19.5" r="2.4" fill="#a5b4fc"/>
  <circle cx="19.5" cy="44.5" r="2.4" fill="#6ee7b7"/>
</svg>
